 <svg  version="1.0" xmlns="http://www.w3.org/2000/svg"  width="450.000000pt" height="450.000000pt" viewBox="0 0 450.000000 450.000000"  preserveAspectRatio="xMidYMid meet">  <g transform="translate(0.000000,450.000000) scale(0.100000,-0.100000)" fill="#000000" stroke="none"> <path d="M2130 3848 c-30 -6 -57 -12 -60 -15 -2 -2 -3 -31 -2 -64 3 -58 3 -59 -23 -59 -35 0 -92 -27 -109 -52 -13 -19 -15 -18 -51 6 -44 30 -101 34 -148 10 l-31 -17 -47 52 c-26 28 -52 51 -58 51 -5 0 -21 -15 -35 -32 l-25 -33 -7 33 c-4 18 -10 34 -14 37 -3 2 -38 -6 -76 -19 -78 -26 -80 -30 -66 -119 l9 -56 -43 6 c-23 3 -56 1 -73 -5 -30 -10 -31 -10 -31 16 0 45 -41 103 -89 129 -77 40 -189 26 -314 -40 -68 -36 -69 -41 -20 -143 20 -41 34 -59 47 -59 16 0 30 -29 75 -162 31 -89 59 -165 63 -168 4 -4 36 3 72 15 75 25 76 26 53 137 -9 43 -10 66 -3 73 13 13 26 13 26 -2 0 -29 44 -99 74 -118 47 -28 113 -27 159 4 l36 25 3 -22 c2 -18 9 -22 34 -20 18 2 49 9 70 16 35 11 39 16 36 45 -1 18 0 32 3 32 3 0 29 -16 58 -35 28 -19 57 -35 64 -35 6 0 21 16 34 36 19 32 25 35 53 30 41 -7 102 8 138 34 27 20 29 20 54 4 15 -10 44 -17 72 -16 26 0 52 -4 59 -10 18 -14 123 1 123 18 0 18 4 18 41 -2 20 -10 51 -14 92 -13 48 2 72 -2 104 -19 52 -27 75 -28 91 -2 17 28 27 25 42 -10 14 -34 26 -36 75 -16 30 13 35 13 35 1 0 -19 8 -23 80 -34 44 -7 67 -7 76 0 7 6 16 41 20 78 l6 67 42 10 c22 6 50 15 60 19 17 8 19 5 13 -31 -3 -21 -9 -67 -13 -101 l-6 -61 56 -12 c31 -6 66 -10 78 -8 24 3 27 15 42 139 6 45 11 58 27 62 17 5 19 0 19 -49 0 -65 27 -128 77 -177 99 -99 251 -103 356 -8 82 74 111 204 67 297 -43 88 -149 154 -247 154 -40 0 -128 -32 -155 -57 -19 -17 -20 -17 -30 0 -7 14 -20 18 -54 16 -24 -2 -46 0 -50 4 -4 4 -24 7 -45 7 -34 0 -39 3 -45 28 -11 47 -42 87 -86 112 -38 22 -55 25 -143 25 l-100 0 -3 -35 c-5 -58 -6 -60 -54 -43 -42 14 -43 14 -65 -13 -21 -26 -22 -27 -29 -9 -11 30 -24 35 -91 35 -49 0 -63 -3 -63 -15 0 -18 1 -18 -45 1 -44 18 -93 13 -142 -16 l-33 -19 0 99 c0 113 8 105 -90 88z m52 -250 c2 -117 3 -214 3 -215 0 -1 -14 -3 -30 -5 -26 -3 -30 0 -29 20 1 26 -4 27 -30 7 -26 -20 -86 -19 -114 1 -68 47 -69 179 -2 239 16 15 36 20 77 20 l55 0 -7 67 c-7 71 -6 74 52 77 21 1 22 0 25 -211z m751 130 c48 -14 92 -57 100 -96 17 -83 -43 -165 -130 -178 -56 -8 -63 -15 -63 -69 -1 -73 -8 -85 -51 -85 -25 0 -42 5 -45 14 -3 8 2 76 10 152 8 77 18 169 22 207 l6 67 56 0 c30 0 73 -5 95 -12z m-1432 -50 c1 -24 4 -54 8 -67 6 -21 9 -19 45 33 21 31 42 59 46 61 4 2 21 -13 38 -35 l32 -39 -60 -63 -59 -63 79 -73 c74 -68 78 -74 68 -97 -6 -14 -15 -25 -20 -25 -5 0 -43 25 -85 56 l-76 56 7 -65 c6 -61 5 -65 -16 -71 -58 -15 -60 -13 -52 79 5 66 3 95 -9 127 -18 50 -40 188 -32 197 7 6 64 29 78 30 4 1 7 -18 8 -41z m-374 5 c67 -31 92 -115 57 -189 -16 -33 -79 -97 -105 -106 -10 -3 -10 -18 4 -81 9 -43 17 -82 17 -87 0 -8 -69 -35 -74 -28 -2 1 -29 81 -60 176 -32 94 -61 172 -65 172 -4 0 -12 -5 -19 -12 -8 -8 -17 2 -35 43 l-24 54 36 19 c99 53 207 69 268 39z m1283 -38 c5 -3 17 -20 26 -37 15 -28 14 -31 -5 -52 -11 -12 -43 -35 -70 -51 -73 -43 -62 -63 16 -30 20 8 37 14 38 13 1 -2 9 -16 18 -32 14 -29 13 -31 -10 -49 -57 -45 -167 -26 -198 34 -31 58 -15 149 34 193 35 32 108 37 151 11z m165 -25 c9 -27 18 -50 20 -50 2 0 15 20 29 45 29 48 36 51 84 34 l31 -11 -56 -74 -55 -74 35 -68 36 -68 -35 -13 c-20 -7 -37 -11 -39 -9 -2 2 -13 25 -25 52 l-21 49 -29 -46 c-29 -45 -30 -46 -62 -35 -18 6 -34 12 -36 13 -2 2 17 32 42 68 l46 65 -29 63 c-49 110 -49 109 3 109 l44 0 17 -50z m-704 1 c42 -43 37 -63 -25 -113 -30 -24 -55 -46 -55 -50 -1 -13 28 -9 60 8 17 8 32 14 32 12 1 -2 10 -18 19 -36 l17 -33 -32 -19 c-21 -13 -50 -20 -85 -20 -45 0 -57 4 -88 33 -31 28 -37 41 -41 83 -11 123 120 213 198 135z m1705 -56 c58 -34 96 -91 102 -155 2 -28 3 -50 1 -50 -2 1 -26 7 -54 14 -40 11 -50 18 -56 40 -10 37 -28 57 -66 72 -42 18 -87 8 -122 -26 -26 -27 -30 -27 -74 -17 -26 6 -47 15 -47 22 0 16 45 74 71 93 70 49 169 52 245 7z m-446 -20 l0 -25 33 20 c17 11 42 20 53 20 21 0 21 -2 10 -47 -11 -43 -15 -48 -43 -51 -46 -5 -60 -28 -70 -117 l-8 -80 -40 3 c-22 2 -41 4 -42 6 -1 1 7 67 17 146 11 80 20 146 20 148 0 1 16 2 35 2 31 0 35 -3 35 -25z m-415 -73 l-7 -57 -18 35 c-17 33 -17 35 4 67 26 39 30 29 21 -45z m-1334 52 c84 -43 71 -191 -21 -239 -116 -60 -214 76 -142 197 31 53 106 72 163 42z m255 -32 c-4 -3 -11 -1 -18 6 -8 8 -8 15 3 28 13 16 14 16 17 -5 2 -13 1 -25 -2 -29z m849 28 c11 -33 -16 -57 -29 -25 -6 17 2 45 14 45 5 0 11 -9 15 -20z m1030 -90 c26 -29 22 -70 -9 -97 -15 -13 -36 -23 -47 -23 -28 0 -69 44 -69 75 0 57 86 89 125 45z m-210 -31 c36 -9 44 -16 49 -40 3 -16 17 -40 30 -54 47 -47 108 -45 158 6 26 25 35 28 67 23 63 -10 67 -16 40 -65 -32 -58 -102 -101 -174 -107 -124 -10 -235 92 -235 214 0 38 3 39 65 23z"/> <path d="M2027 3562 c-23 -25 -21 -65 3 -87 42 -38 97 24 71 81 -13 29 -51 32 -74 6z m43 -36 c0 -8 -4 -18 -10 -21 -5 -3 -10 3 -10 14 0 12 5 21 10 21 6 0 10 -6 10 -14z"/> <path d="M2865 3637 c-2 -6 -5 -34 -7 -60 -3 -46 -2 -48 22 -45 28 3 55 48 45 77 -7 24 -54 46 -60 28z"/> <path d="M1020 3571 c0 -5 5 -32 12 -61 13 -57 28 -62 61 -18 17 23 19 33 11 55 -8 23 -16 29 -47 31 -20 2 -37 -1 -37 -7z"/> <path d="M2296 3578 c-16 -22 -22 -58 -10 -58 13 0 83 64 78 71 -10 17 -53 9 -68 -13z"/> <path d="M1768 3573 c-20 -23 -31 -60 -23 -73 4 -6 23 8 45 32 21 24 36 46 33 51 -8 13 -40 7 -55 -10z"/> <path d="M1287 3478 c-28 -22 -32 -63 -8 -87 12 -12 29 -21 39 -21 27 0 62 37 62 66 l0 25 -26 -20 c-21 -16 -30 -18 -40 -10 -21 17 -17 39 9 49 21 8 21 9 1 9 -11 1 -28 -5 -37 -11z"/> <path d="M3438 3419 c-34 -19 -16 -79 23 -79 19 0 49 25 49 41 0 11 -37 49 -47 49 -5 0 -16 -5 -25 -11z m47 -34 c0 -13 -8 -21 -22 -23 -19 -3 -23 1 -23 23 0 22 4 26 23 23 14 -2 22 -10 22 -23z"/> <path d="M1300 3093 c0 -5 19 -42 41 -83 87 -160 235 -338 357 -431 35 -26 68 -49 75 -52 7 -2 4 -19 -10 -53 -12 -27 -26 -85 -32 -129 -7 -44 -18 -110 -26 -147 -25 -113 -17 -164 40 -247 19 -29 29 -53 24 -57 -6 -3 -25 -36 -42 -72 l-32 -65 -135 -24 c-74 -12 -152 -26 -174 -29 l-39 -7 27 39 c14 21 26 43 26 49 0 6 -42 10 -105 11 -58 1 -104 -1 -101 -3 2 -2 35 -8 72 -11 62 -6 69 -9 74 -32 4 -14 3 -33 -2 -43 -5 -10 -7 -22 -3 -25 3 -4 82 -8 176 -10 l169 -4 0 -43 0 -43 -171 -2 c-95 0 -179 -5 -188 -10 -10 -6 53 -7 169 -3 l186 6 9 -54 c9 -47 7 -62 -12 -109 -12 -31 -28 -89 -34 -129 -21 -127 19 -262 98 -331 18 -16 33 -31 33 -33 0 -3 -21 -7 -46 -11 -25 -3 -66 -15 -90 -25 -36 -16 -44 -25 -44 -46 0 -75 291 -127 710 -127 395 1 627 45 638 121 3 17 -5 25 -40 41 -24 10 -63 22 -86 26 -24 4 -39 11 -35 17 4 6 39 7 95 3 61 -5 88 -4 83 4 -3 5 -13 10 -21 10 -8 0 -12 5 -9 10 3 6 39 10 78 11 40 1 83 4 97 9 26 8 26 8 -35 28 -24 8 -10 11 75 12 58 1 125 5 150 9 l45 7 -45 7 c-62 10 -215 24 -341 32 l-106 7 14 50 c8 27 13 74 11 104 l-3 56 55 -7 c30 -3 67 -8 83 -11 35 -7 35 5 3 110 l-25 79 88 -6 c49 -4 90 -4 93 -1 3 2 -5 42 -18 87 -13 45 -24 84 -24 87 0 3 60 5 133 5 73 1 114 -2 92 -6 -22 -3 65 -7 194 -8 129 0 231 2 228 5 -4 4 -84 10 -178 15 -104 4 -174 12 -178 18 -5 7 -57 10 -154 8 -81 -1 -147 1 -147 5 0 3 -3 14 -7 24 -4 11 -3 15 5 10 6 -3 68 -9 138 -12 121 -6 127 -5 121 12 -29 98 -45 170 -38 177 15 15 134 25 351 31 200 5 378 22 366 34 -3 2 -161 -1 -351 -9 -190 -7 -339 -16 -333 -21 8 -5 -2 -8 -24 -8 -41 0 -43 1 -53 48 l-7 34 240 -7 240 -8 4 24 c3 22 9 24 78 30 41 4 156 7 255 8 211 1 419 20 402 37 -5 6 -528 -12 -653 -22 l-71 -5 57 213 c31 117 60 224 65 237 7 24 7 24 -51 17 -192 -22 -849 -196 -908 -239 -22 -16 -26 -6 78 -232 31 -66 53 -121 49 -122 -5 -1 -57 -5 -116 -8 -117 -8 -112 -4 -90 -62 4 -9 -8 -13 -40 -13 -40 0 -46 3 -57 30 -7 16 -18 34 -25 40 -10 9 -6 21 21 61 52 77 64 140 44 224 -6 22 -17 84 -25 137 -8 53 -24 122 -36 153 -11 31 -19 58 -17 59 1 2 30 22 63 46 130 94 295 289 375 442 22 42 40 79 40 82 0 3 -15 6 -32 6 -37 0 -162 -52 -246 -102 -69 -41 -206 -169 -274 -257 -28 -36 -54 -69 -58 -74 -4 -4 -32 4 -62 18 -159 73 -410 72 -558 -2 l-56 -28 -49 68 c-63 86 -215 231 -288 275 -119 71 -277 126 -277 95z m138 -58 c29 -13 55 -31 58 -40 9 -24 -16 -115 -32 -115 -8 0 -14 7 -14 15 0 8 -4 15 -8 15 -10 0 -82 122 -82 138 0 18 19 14 78 -13z m1702 13 c0 -25 -93 -168 -109 -168 -4 0 -14 25 -21 55 -16 66 -11 75 66 105 58 23 64 24 64 8z m-1400 -208 c47 -47 104 -113 126 -147 l41 -60 54 28 c161 83 475 77 600 -11 l26 -19 39 57 c47 68 210 234 277 280 l47 34 15 -36 c20 -46 19 -145 -1 -195 -15 -39 -94 -116 -202 -197 l-54 -42 -29 32 c-16 17 -29 26 -29 20 0 -6 7 -17 16 -25 39 -32 77 -137 94 -256 5 -37 12 -79 16 -93 7 -24 7 -24 -13 -7 -42 36 -111 7 -139 -59 -20 -49 -18 -123 6 -162 21 -34 63 -57 89 -47 9 3 -3 -13 -27 -36 -46 -44 -52 -63 -9 -29 14 11 27 20 30 20 3 0 16 -19 30 -42 80 -139 84 -314 11 -445 -49 -89 -154 -219 -164 -203 -4 7 -16 9 -29 5 -13 -4 -21 -2 -21 5 0 7 -8 9 -20 5 -15 -5 -20 -2 -20 10 0 12 -6 16 -19 12 -18 -4 -20 3 -26 69 -8 84 5 190 34 279 22 65 21 83 -2 38 -29 -56 -49 -165 -48 -263 0 -107 12 -153 36 -144 10 4 15 0 15 -11 0 -12 5 -15 20 -10 12 4 20 2 20 -5 0 -8 9 -10 24 -6 14 3 28 1 31 -5 14 -22 123 105 179 211 l33 62 28 -86 c24 -75 27 -95 22 -173 -3 -48 -10 -105 -16 -125 -19 -61 -83 -133 -145 -162 -62 -30 -76 -45 -20 -21 36 15 38 14 71 -11 75 -57 78 -99 6 -102 -42 -2 -210 50 -239 74 -18 14 -16 15 19 10 20 -3 35 -1 32 3 -2 5 -33 11 -67 14 -35 3 -103 11 -151 17 -64 7 -111 7 -170 -1 -45 -6 -116 -14 -157 -17 -66 -6 -70 -7 -35 -12 l40 -6 -46 -22 c-57 -27 -162 -54 -192 -50 -21 3 -21 4 8 31 16 15 26 27 21 27 -4 0 -21 -14 -37 -31 -24 -26 -32 -29 -44 -19 -22 18 -19 33 13 62 42 39 69 50 91 38 11 -5 26 -10 33 -10 7 1 -2 7 -21 16 -64 27 -118 81 -153 152 -30 61 -33 74 -33 162 0 73 5 112 24 168 l24 73 32 -60 c37 -69 139 -199 163 -208 9 -4 18 -1 20 6 3 9 7 9 19 -1 12 -10 18 -9 28 5 10 13 15 15 21 6 5 -9 10 -8 19 5 7 9 18 15 25 14 38 -9 39 237 1 355 -26 80 -40 84 -17 5 26 -91 38 -197 31 -274 -5 -57 -10 -72 -21 -67 -7 3 -17 -2 -20 -11 -4 -11 -13 -14 -24 -11 -10 3 -21 1 -25 -5 -5 -8 -11 -8 -20 0 -10 8 -16 7 -22 -5 -8 -13 -21 -2 -72 62 -119 150 -157 248 -144 379 5 59 49 192 73 224 l18 23 27 -21 c45 -36 40 -18 -7 27 -33 31 -38 39 -21 34 31 -7 71 21 89 62 29 71 11 162 -41 203 -33 26 -62 28 -94 5 -24 -16 -24 -16 -17 8 4 13 11 58 17 99 13 102 43 188 80 233 17 21 29 40 26 43 -2 3 -16 -9 -30 -26 l-26 -30 -78 59 c-95 71 -180 159 -189 196 -9 37 0 166 15 192 l11 23 53 -37 c28 -20 90 -76 137 -123z m2070 -610 l-68 -255 -118 3 c-66 1 -174 5 -241 8 -100 5 -123 3 -123 -7 0 -8 20 -77 45 -154 24 -76 43 -140 41 -142 -1 -1 -60 4 -132 11 -71 7 -130 13 -131 12 -2 -1 2 -18 7 -37 6 -18 7 -49 4 -68 l-7 -34 -23 44 c-23 43 -23 44 -24 14 l-1 -30 -16 30 c-16 29 -17 30 -22 7 -3 -13 -10 -23 -16 -24 -9 0 -125 244 -125 264 0 4 52 8 115 8 64 0 115 4 115 9 0 5 -34 84 -75 175 -41 91 -75 169 -75 174 0 9 185 71 345 116 159 45 580 139 592 132 1 -1 -29 -116 -67 -256z m-1975 -54 c36 -36 51 -97 36 -147 -17 -55 -44 -81 -84 -77 -26 2 -36 11 -52 43 -24 48 -28 162 -6 188 21 26 77 22 106 -7z m941 -1 c22 -33 15 -127 -12 -181 -27 -51 -71 -59 -108 -19 -49 52 -39 171 17 210 34 24 84 19 103 -10z m100 -420 c29 -50 28 -57 -11 -57 -32 0 -43 9 -54 50 -8 26 -6 34 7 42 26 15 29 13 58 -35z m-1196 -66 c0 -8 -31 -9 -107 -4 -60 4 -110 9 -112 11 -2 2 46 4 107 4 75 0 112 -4 112 -11z m1205 -19 l-40 -7 48 -2 c46 -1 54 -8 48 -43 0 -5 4 -8 9 -8 6 0 10 -7 10 -15 0 -22 -16 -18 -27 7 -8 18 -18 23 -46 23 -32 0 -37 -3 -37 -23 0 -13 -4 -20 -10 -17 -15 9 -13 0 17 -92 15 -45 25 -84 22 -86 -2 -3 -13 -7 -24 -11 -28 -8 -55 56 -43 99 5 17 9 65 10 108 l1 77 51 -1 51 -2 -40 -7z m19 -75 c-4 -8 -10 -12 -15 -9 -14 8 -10 24 6 24 9 0 12 -6 9 -15z m144 -11 c6 3 18 -4 26 -16 15 -22 17 -21 28 21 2 8 13 -21 25 -64 l21 -78 -84 7 c-46 4 -88 5 -93 2 -5 -3 3 -44 16 -92 14 -47 23 -87 21 -89 -2 -2 -36 1 -75 7 -68 10 -71 12 -77 40 -6 32 16 79 29 59 3 -6 11 -11 16 -11 11 0 5 31 -29 128 -18 54 -21 77 -13 85 8 8 15 6 26 -9 14 -18 15 -18 26 -1 10 18 12 18 35 -4 l24 -22 0 21 c0 15 5 20 15 16 8 -4 17 1 21 10 6 15 7 15 19 0 6 -9 17 -14 23 -10z m-60 -570 c50 -14 5 -36 -132 -64 -27 -6 -51 -8 -54 -5 -3 2 7 20 22 40 25 33 30 35 84 35 31 0 67 -3 80 -6z m-1295 -179 c-3 -8 -17 -15 -32 -15 l-26 1 24 19 c25 21 44 18 34 -5z m712 14 c33 -6 71 -19 85 -29 15 -10 46 -26 70 -36 42 -17 42 -18 19 -27 -24 -10 -536 -13 -574 -4 -11 3 -36 6 -55 7 l-35 1 24 19 c13 11 29 20 36 20 7 0 23 9 37 20 14 10 47 23 74 28 69 14 249 14 319 1z m474 -13 c11 -12 10 -16 -8 -26 -23 -12 -65 -5 -56 10 3 5 1 11 -5 15 -5 3 -10 11 -10 17 0 14 61 2 79 -16z"/> <path d="M2740 2605 c-25 -13 -41 -24 -37 -25 11 0 87 39 87 45 0 7 0 7 -50 -20z"/> <path d="M1904 2392 c-75 -60 -40 -174 52 -174 51 0 94 45 94 98 0 73 -91 121 -146 76z m111 -47 c0 -23 -5 -31 -21 -33 -27 -4 -47 21 -39 48 5 16 14 20 33 18 23 -2 27 -8 27 -33z m-57 -62 l22 -23 -28 0 c-30 0 -55 30 -46 54 5 12 8 13 18 3 6 -6 22 -22 34 -34z"/> <path d="M2479 2381 c-38 -39 -39 -87 -3 -130 36 -43 93 -44 135 -2 33 33 37 67 14 111 -30 59 -98 68 -146 21z m68 -17 c9 -24 -10 -49 -38 -49 -24 0 -36 23 -25 51 7 19 55 18 63 -2z m53 -52 c0 -18 -33 -52 -51 -52 -26 0 -24 6 9 35 28 25 42 31 42 17z"/> <path d="M2210 2242 c0 -5 9 -17 20 -27 19 -17 21 -17 40 0 29 27 25 35 -20 35 -22 0 -40 -4 -40 -8z"/> <path d="M2200 2130 c-39 -21 -81 -25 -111 -10 -25 14 -25 -2 1 -18 11 -7 20 -18 20 -25 0 -6 13 -39 29 -72 29 -64 79 -115 111 -115 32 0 82 51 111 115 16 33 29 66 29 72 0 7 9 18 20 25 30 19 24 28 -10 15 -25 -10 -39 -8 -78 6 -71 28 -84 29 -122 7z m107 -22 c18 -7 33 -18 33 -26 0 -10 -5 -12 -17 -6 -32 14 -92 16 -124 5 -37 -13 -53 -5 -24 12 47 28 84 32 132 15z m-7 -43 c14 -4 33 -14 42 -22 15 -14 16 -18 3 -43 -28 -54 -66 -90 -94 -90 -30 0 -69 35 -95 86 -14 28 -14 33 -1 44 21 17 87 40 105 35 8 -2 26 -7 40 -10z"/> <path d="M2080 1750 c0 -19 86 -53 145 -58 50 -4 71 0 111 18 l49 23 -35 8 c-53 12 -270 19 -270 9z m228 -20 c27 -7 27 -7 -8 -15 -19 -5 -42 -9 -50 -8 -69 2 -89 5 -106 18 -17 13 -12 14 59 14 44 -1 91 -5 105 -9z"/> <path d="M2795 1080 c-4 -6 -30 -22 -58 -37 -71 -36 -165 -41 -294 -17 -128 24 -261 22 -387 -5 -166 -36 -249 -27 -335 35 l-36 25 34 -30 c19 -17 49 -37 67 -46 48 -22 152 -21 279 5 134 27 256 27 383 3 153 -31 288 -9 346 56 11 12 16 21 13 21 -3 0 -9 -5 -12 -10z"/> <path d="M2714 811 c16 -17 32 -29 34 -26 7 7 -18 34 -42 47 -16 8 -14 3 8 -21z"/> <path d="M3590 2099 c-160 -13 -412 -39 -436 -45 -20 -5 -19 -10 31 -125 29 -66 55 -122 58 -126 12 -11 -10 53 -41 118 -46 98 -49 117 -20 123 44 9 193 26 283 31 111 6 288 25 294 31 5 5 -37 3 -169 -7z"/> <path d="M3012 1738 c29 -71 38 -80 23 -21 -16 60 -7 67 73 59 31 -3 73 -2 92 3 27 7 6 9 -87 10 l-122 1 21 -52z"/> <path d="M0 2769 c0 -9 76 -32 92 -27 5 2 -13 11 -41 20 -28 9 -51 12 -51 7z"/> <path d="M20 2730 c34 -11 60 -11 35 0 -11 5 -29 8 -40 8 -16 0 -15 -2 5 -8z"/> <path d="M3445 2703 c-49 -13 -130 -35 -180 -48 -211 -55 -348 -95 -342 -101 2 -3 31 3 63 12 32 8 73 19 89 24 174 46 492 132 500 135 37 13 -56 -2 -130 -22z"/> <path d="M4455 2714 l-40 -13 40 5 c40 6 52 11 44 18 -2 2 -22 -3 -44 -10z"/> <path d="M3339 2630 l-257 -88 82 -32 c116 -46 120 -46 37 -2 l-75 39 40 9 c21 4 44 8 49 8 6 1 15 6 22 12 6 6 75 32 154 59 154 51 209 73 209 80 0 3 -1 5 -2 4 -2 0 -118 -40 -259 -89z"/> <path d="M0 2661 c0 -9 86 -21 140 -20 27 1 21 4 -30 15 -77 15 -110 17 -110 5z"/> <path d="M551 2656 c7 -8 1008 -157 1039 -155 35 2 -59 21 -251 49 -112 17 -217 33 -234 35 -68 11 -537 75 -547 75 -6 0 -9 -2 -7 -4z"/> <path d="M551 2636 c2 -2 42 -14 89 -25 47 -12 105 -28 130 -35 25 -8 169 -44 321 -82 187 -46 276 -72 276 -81 0 -7 -7 -13 -14 -13 -8 0 -12 -3 -9 -8 8 -13 -22 -45 -35 -36 -8 4 -10 3 -5 -5 5 -7 -15 -36 -52 -74 -34 -34 -70 -75 -82 -92 -12 -16 37 31 109 105 108 111 128 136 114 142 -21 9 -822 208 -837 208 -5 0 -7 -2 -5 -4z"/> <path d="M4460 2623 c-42 -8 -42 -19 0 -15 22 2 40 8 40 13 0 5 -3 8 -7 8 -5 -1 -19 -4 -33 -6z"/> <path d="M15 2591 c19 -9 133 -15 124 -7 -2 2 -35 6 -74 10 -46 4 -63 3 -50 -3z"/> <path d="M4460 2590 l-35 -7 38 -2 c20 0 37 4 37 9 0 6 -1 9 -2 9 -2 -1 -19 -5 -38 -9z"/> <path d="M0 2566 c0 -19 16 -23 125 -31 50 -3 110 -8 135 -11 33 -4 41 -3 30 5 -8 6 -32 11 -52 11 -21 0 -38 4 -38 9 0 5 -33 12 -72 16 -40 3 -85 8 -100 11 -21 4 -28 2 -28 -10z"/> <path d="M4385 2540 l-100 -17 70 -2 c92 -1 145 8 145 25 0 8 -3 14 -7 13 -5 -1 -53 -9 -108 -19z"/> <path d="M2925 2533 c6 -6 39 -21 75 -34 43 -16 58 -25 45 -27 -11 -2 -24 -8 -30 -12 -5 -5 -27 -11 -47 -15 -21 -4 -38 -11 -38 -15 0 -4 19 -3 43 2 23 6 67 16 97 22 l55 12 -80 31 c-101 39 -133 48 -120 36z"/> <path d="M4355 2505 c-158 -18 -176 -25 -55 -19 134 6 200 14 200 25 0 10 0 10 -145 -6z"/> <path d="M1478 2359 c-62 -66 -111 -123 -109 -127 4 -7 276 -82 296 -81 26 0 -29 19 -125 44 -113 30 -153 46 -132 53 6 2 10 8 6 13 -3 5 2 12 10 15 9 3 16 10 16 16 0 5 6 15 13 22 6 7 34 36 60 65 27 28 53 48 59 45 7 -5 8 -2 4 5 -5 7 0 21 10 32 9 10 14 19 11 19 -3 0 -56 -54 -119 -121z"/> <path d="M4455 2450 c-30 -8 -30 -8 8 -9 20 0 37 4 37 9 0 11 -2 11 -45 0z"/> <path d="M3062 2417 c-146 -30 -151 -32 -120 -44 48 -17 66 -16 42 2 -10 8 -14 15 -9 15 10 0 113 18 150 26 11 2 47 9 80 14 32 6 61 13 64 15 11 12 -66 1 -207 -28z"/> <path d="M2880 2420 c0 -5 10 -10 23 -10 18 0 19 2 7 10 -19 13 -30 13 -30 0z"/> <path d="M4420 2418 c-116 -12 -123 -17 -23 -15 79 2 117 9 102 20 -2 2 -38 -1 -79 -5z"/> <path d="M2825 2400 c-7 -12 2 -12 30 0 19 8 19 9 -2 9 -12 1 -25 -3 -28 -9z"/> <path d="M0 2392 c0 -6 42 -13 98 -16 53 -4 114 -8 135 -10 20 -2 35 -1 32 4 -3 4 -44 11 -92 14 -49 4 -107 9 -130 13 -26 3 -43 1 -43 -5z"/> <path d="M2825 2372 c13 -11 109 -32 143 -31 19 1 11 5 -24 14 -86 21 -130 27 -119 17z"/> <path d="M4440 2373 c-190 -20 -388 -47 -400 -54 -10 -7 -4 -8 20 -5 19 3 91 8 160 11 246 11 280 15 280 36 0 11 -6 18 -12 17 -7 0 -29 -3 -48 -5z"/> <path d="M0 2347 c0 -17 75 -28 89 -14 5 5 21 7 37 4 29 -4 28 -4 -3 -6 -38 -1 -44 -18 -10 -25 12 -3 112 -7 222 -9 231 -6 214 8 -25 20 -120 6 -141 9 -95 13 54 5 47 6 -60 14 -66 4 -128 10 -137 12 -11 4 -18 0 -18 -9z"/> <path d="M4423 2303 c15 -2 39 -2 55 0 15 2 2 4 -28 4 -30 0 -43 -2 -27 -4z"/> <path d="M107 2275 c3 -9 2 -15 -3 -14 -5 1 -31 0 -59 -1 -95 -6 87 -17 270 -18 188 0 192 15 5 18 -85 2 -106 5 -80 11 26 6 16 7 -37 5 -40 -2 -73 1 -73 5 0 5 -7 9 -15 9 -9 0 -12 -6 -8 -15z"/> <path d="M4320 2250 c-24 -5 -1 -8 73 -9 65 0 107 3 107 9 0 11 -126 11 -180 0z"/> <path d="M6 2220 c8 -7 100 -14 275 -20 328 -12 441 -12 413 0 -11 4 -139 11 -285 14 -145 4 -298 9 -339 12 -57 4 -72 3 -64 -6z"/> <path d="M4275 2211 c-13 -6 12 -11 77 -16 99 -7 148 -2 148 15 0 12 -196 12 -225 1z m178 -8 c-18 -2 -48 -2 -65 0 -18 2 -4 4 32 4 36 0 50 -2 33 -4z"/> <path d="M123 2170 c-212 -13 -103 -20 303 -19 245 1 404 4 384 9 -46 11 -556 19 -687 10z"/> <path d="M4312 2160 c-79 -4 -145 -10 -148 -13 -8 -8 199 -18 231 -11 36 8 64 12 88 13 9 1 17 6 17 11 0 6 -10 9 -22 8 -13 0 -87 -4 -166 -8z"/> <path d="M3 2133 c8 -7 108 -5 116 3 2 2 -24 4 -59 4 -35 0 -60 -3 -57 -7z"/> <path d="M1205 2129 c33 -5 117 -13 188 -17 70 -5 132 -13 139 -20 8 -8 -1 -32 -36 -93 -25 -45 -46 -88 -46 -96 0 -8 -4 -11 -10 -8 -5 3 -10 -3 -10 -13 0 -40 -16 -42 -246 -32 -120 5 -220 7 -222 5 -13 -13 183 -38 325 -42 122 -4 132 -3 137 15 4 11 38 78 76 150 69 130 77 147 63 139 -5 -3 -82 1 -173 9 -196 15 -278 17 -185 3z"/> <path d="M60 2108 c0 -5 9 -8 20 -8 11 0 20 -4 20 -10 0 -14 367 -14 375 0 4 6 -13 10 -42 11 -26 1 -121 4 -211 8 -89 3 -162 3 -162 -1z"/> <path d="M4147 2110 c-114 -4 -211 -10 -214 -14 -4 -3 65 -6 153 -6 87 0 216 -3 287 -7 93 -4 127 -3 127 5 0 8 -21 12 -59 12 -33 0 -63 5 -66 10 -3 6 -9 9 -13 8 -4 0 -101 -4 -215 -8z"/> <path d="M1620 1968 c-29 -62 -54 -119 -57 -125 -6 -15 80 -16 132 -3 23 6 15 8 -37 9 -54 1 -68 4 -68 17 0 9 5 12 12 8 7 -4 8 -3 4 4 -4 6 -2 19 3 29 14 26 57 124 65 151 16 49 -4 17 -54 -90z"/> <path d="M288 2053 c39 -2 105 -2 145 0 39 1 7 3 -73 3 -80 0 -112 -2 -72 -3z"/> <path d="M425 2015 c50 -8 107 -17 128 -21 22 -3 150 -3 285 2 310 10 242 20 -198 28 -288 5 -300 4 -215 -9z"/> <path d="M4170 1999 c-197 -13 -207 -17 -40 -14 85 1 173 7 195 13 l40 10 -35 -1 c-19 0 -91 -4 -160 -8z"/> <path d="M543 1964 c7 -7 229 -5 236 2 2 2 -51 4 -119 4 -68 0 -121 -3 -117 -6z"/> <path d="M4040 1960 l-145 -6 145 -2 c80 -1 152 3 160 8 13 9 13 9 0 8 -8 -1 -80 -5 -160 -8z"/> <path d="M560 1937 c10 -11 132 -26 260 -33 69 -4 134 -11 145 -17 21 -11 322 -13 333 -3 3 3 -43 6 -103 6 -123 0 -138 8 -22 11 154 5 71 16 -170 22 -137 4 -293 10 -348 13 -55 4 -98 4 -95 1z"/> <path d="M1160 1661 c-68 -5 -39 -8 145 -14 134 -4 245 -3 265 2 26 7 -8 9 -125 10 -88 1 -169 3 -180 4 -11 2 -58 1 -105 -2z"/> <path d="M980 1646 c-3 -2 -156 -7 -340 -11 -184 -4 -337 -9 -339 -11 -9 -8 905 -2 929 6 16 5 -17 8 -90 9 -63 1 -124 4 -135 7 -11 3 -23 3 -25 0z"/> <path d="M458 1602 c-16 -2 -28 -8 -28 -14 0 -8 34 -9 113 -5 61 4 186 8 277 9 l165 1 -115 8 c-115 7 -361 8 -412 1z"/> <path d="M3618 1583 c18 -2 45 -2 60 0 15 2 0 4 -33 4 -33 0 -45 -2 -27 -4z"/> <path d="M3595 1568 c-143 -5 -299 -6 -347 -3 -58 4 -88 2 -88 -5 0 -6 40 -10 108 -10 60 0 169 -2 243 -4 101 -3 113 -2 49 3 -56 5 30 8 250 10 184 2 322 7 305 11 -38 10 -191 9 -520 -2z"/> <path d="M490 1560 c-30 -5 -36 -7 -17 -8 15 -1 27 -5 27 -10 0 -4 35 -4 78 0 42 3 129 7 192 9 63 1 147 5 185 9 45 4 -17 7 -175 7 -135 0 -265 -3 -290 -7z"/> <path d="M1090 1540 c-19 -3 80 -5 220 -2 140 2 260 5 265 7 18 7 -449 2 -485 -5z"/> <path d="M4100 1530 c152 -16 400 -24 400 -11 0 6 -12 11 -27 11 -16 0 -122 2 -238 4 -142 3 -186 2 -135 -4z"/> <path d="M649 1526 c-2 -2 -56 -6 -119 -10 -161 -9 -254 -17 -259 -22 -8 -7 116 -4 362 10 131 8 241 17 244 20 7 6 -221 9 -228 2z"/> <path d="M990 1510 c-15 -5 65 -8 198 -9 123 -1 221 3 218 7 -7 12 -383 13 -416 2z"/> <path d="M3280 1510 c-53 -5 -20 -7 110 -7 102 -1 210 2 240 7 69 9 -239 9 -350 0z"/> <path d="M610 1483 c-113 -8 -245 -17 -295 -21 l-90 -8 80 -5 c44 -2 222 -2 395 1 281 5 296 6 135 9 -175 4 -177 4 -80 11 55 4 181 9 280 10 99 1 176 3 170 5 -31 10 -419 9 -595 -2z"/> <path d="M3735 1479 c385 -13 408 -13 593 -11 107 1 172 6 172 12 0 7 -175 9 -507 8 -475 -1 -492 -2 -258 -9z"/> <path d="M3610 1460 c-15 -5 39 -8 130 -8 109 0 142 3 110 9 -58 10 -207 9 -240 -1z"/> <path d="M3841 1438 c-157 -12 -128 -15 124 -13 249 3 258 0 45 -14 -104 -7 -73 -8 185 -8 184 0 290 3 260 7 -27 5 -69 9 -93 9 -26 1 -41 5 -37 11 3 6 -1 10 -10 10 -9 0 -14 -4 -11 -8 3 -5 -23 -3 -57 5 -65 13 -244 14 -406 1z"/> <path d="M395 1421 c11 -5 49 -10 85 -11 80 -2 129 -18 58 -19 -27 -1 -48 -5 -48 -10 0 -9 437 -9 715 -1 l90 3 -60 7 c-33 4 -145 9 -250 10 -121 2 -172 6 -140 10 50 7 50 7 -20 8 -38 1 -155 4 -260 7 -123 4 -183 2 -170 -4z"/> <path d="M42 1383 c27 -2 69 -2 95 0 27 2 5 3 -47 3 -52 0 -74 -1 -48 -3z"/> <path d="M420 1371 c0 -4 -19 -8 -42 -9 -24 0 -112 0 -196 -1 -99 -1 -151 -5 -147 -11 7 -11 581 -12 870 -1 171 7 164 8 -137 9 -198 1 -319 6 -323 12 -8 12 -25 13 -25 1z"/> <path d="M4055 1370 c-88 -3 -155 -8 -150 -10 6 -2 -55 -7 -135 -10 -143 -6 -143 -6 80 -9 137 -1 217 -6 205 -11 -11 -5 -141 -9 -289 -9 -148 -1 -266 -4 -263 -7 7 -8 989 -25 996 -19 2 3 2 7 0 9 -4 4 -209 19 -249 18 -22 -1 -23 0 -5 7 11 5 23 7 28 4 4 -2 7 0 7 6 0 5 -6 12 -12 14 -7 3 14 6 47 7 124 4 176 7 182 14 7 7 -192 5 -442 -4z"/> <path d="M72 1311 c20 -4 56 -4 80 -1 35 6 29 8 -37 8 -59 0 -71 -2 -43 -7z"/> <path d="M123 1285 c0 -8 7 -15 14 -15 8 0 11 -4 8 -10 -3 -5 -37 -10 -76 -10 -39 0 -69 -4 -69 -10 0 -11 135 -11 325 0 l120 6 -140 4 -140 4 167 5 c91 3 170 10 175 15 4 5 -66 6 -165 3 -95 -2 -170 -2 -167 2 4 3 106 8 228 11 l222 6 -251 2 c-217 2 -251 0 -251 -13z"/> <path d="M4180 1271 c-49 -5 -18 -8 125 -11 105 -3 192 -4 194 -2 29 17 -191 26 -319 13z"/> <path d="M4181 1226 c11 -9 319 -15 319 -6 0 6 -59 10 -162 10 -89 0 -159 -2 -157 -4z"/> <path d="M0 1203 c0 -5 44 -7 97 -5 181 5 199 8 51 10 -82 1 -148 -1 -148 -5z"/> <path d="M4418 1193 c18 -2 45 -2 60 0 15 2 0 4 -33 4 -33 0 -45 -2 -27 -4z"/> <path d="M103 1183 c15 -2 37 -2 50 0 12 2 0 4 -28 4 -27 0 -38 -2 -22 -4z"/> <path d="M13 1173 c9 -2 25 -2 35 0 9 3 1 5 -18 5 -19 0 -27 -2 -17 -5z"/> <path d="M4140 1170 c97 -5 100 -6 45 -11 -33 -3 24 -6 128 -7 160 -2 187 0 187 13 0 13 -32 15 -232 13 -176 -1 -207 -3 -128 -8z"/> <path d="M193 1162 c-117 -1 -193 -6 -193 -12 0 -11 144 -12 305 -1 156 10 100 16 -112 13z"/> <path d="M4121 1135 c10 -10 379 -15 379 -5 0 6 -67 10 -192 10 -105 0 -189 -2 -187 -5z"/> <path d="M23 1103 c15 -2 39 -2 55 0 15 2 2 4 -28 4 -30 0 -43 -2 -27 -4z"/> <path d="M4303 1093 c37 -2 97 -2 135 0 37 2 6 3 -68 3 -74 0 -105 -1 -67 -3z"/> <path d="M23 1073 c-13 -2 -23 -8 -23 -13 0 -9 108 -4 195 10 42 6 33 8 -50 7 -55 0 -110 -2 -122 -4z"/> <path d="M4421 1076 c10 -9 79 -14 79 -5 0 5 -19 9 -42 9 -23 0 -39 -2 -37 -4z"/> <path d="M4321 1036 c11 -9 179 -15 179 -6 0 6 -37 10 -92 10 -50 0 -89 -2 -87 -4z"/> <path d="M4393 993 c20 -2 54 -2 75 0 20 2 3 4 -38 4 -41 0 -58 -2 -37 -4z"/> <path d="M4433 953 c15 -2 37 -2 50 0 12 2 0 4 -28 4 -27 0 -38 -2 -22 -4z"/> <path d="M15 920 c-16 -7 -14 -9 15 -9 19 0 42 4 50 9 11 7 8 10 -15 9 -16 0 -39 -4 -50 -9z"/> <path d="M13 873 c9 -2 25 -2 35 0 9 3 1 5 -18 5 -19 0 -27 -2 -17 -5z"/> </g> </svg> 